<?xml version="1.0" encoding="UTF-8" standalone="no"?>
<!DOCTYPE svg PUBLIC "-//W3C//DTD SVG 1.1//EN" "http://www.w3.org/Graphics/SVG/1.1/DTD/svg11.dtd">
<svg version="1.1" xmlns="http://www.w3.org/2000/svg" xmlns:xlink="http://www.w3.org/1999/xlink" preserveAspectRatio="xMidYMid meet" viewBox="0 0 640 640" width="640" height="640"><defs><path d="M31.77 355.25L111.12 308.32L111.12 217.06L82.06 217.06L82.06 293.05L16.5 330.67L31.77 355.25Z" id="b4eMaPrAl6"></path><path d="M211.69 355.25L132.35 308.32L132.35 217.06L161.4 217.06L161.4 293.05L226.96 330.67L211.69 355.25Z" id="eoxNbWAiC"></path><path d="M42.3 376.89L122.62 331.65L201.65 377.28L187.12 402.44L121.31 364.44L55.95 402.41L42.3 376.89Z" id="b5KPVCi0H4"></path><path d="M280.19 378.24L334.28 358.86C355.02 375.69 367.2 385.76 370.8 389.06C371.96 390 373.26 391.6 374.69 393.89C377.16 397.8 378.47 402.34 378.47 406.97C378.47 408.81 378.47 413.42 378.47 420.8L378.47 444.06L402.81 444.06C402.7 415.11 402.7 397.83 402.81 392.22C402.92 386.6 400.81 381.44 396.48 376.72L363.59 345.78C368.4 344.58 375.46 342.03 384.78 338.12C395.21 333.77 400.92 325.95 401.91 314.68L401.91 273.2L359.08 273.2L359.08 299.8C367.5 300.1 373.21 300.1 376.21 299.8C376.51 306.11 373.66 311.07 367.65 314.68L306.78 338.12L306.78 197.01L280.19 211.44L280.19 378.24Z" id="ajdQ2eWQl"></path><path d="M418.23 289.72C418.21 296.36 418.38 414.64 418.23 429.37C418.74 439.18 423.43 444.32 432.31 444.78C475.64 444.98 502.07 444.98 511.61 444.78C521.35 444.57 526.78 439.44 527.9 429.37C527.9 346.06 527.9 299.51 527.9 289.72C527.61 279.98 523.09 274.45 514.36 273.13C465.74 272.9 438.39 272.9 432.31 273.13C419.84 274.08 418.21 287.19 418.23 289.72Z" id="a1xv6zsE9Q"></path><path d="M442.24 308.73C442.23 313.55 442.33 399.31 442.24 409.98C442.53 417.1 445.23 420.82 450.33 421.16C475.2 421.3 490.37 421.3 495.85 421.16C501.44 421.01 504.56 417.28 505.2 409.98C505.2 349.58 505.2 315.83 505.2 308.73C505.03 301.67 502.44 297.66 497.42 296.7C469.51 296.54 453.81 296.54 450.33 296.7C443.17 297.39 442.23 306.89 442.24 308.73Z" id="b493FIKkI"></path><path d="M544.34 419.23L569.85 444.93L616.5 444.93L616.5 419.23L569.85 419.23L569.85 298.13L606.34 298.13L606.34 271.79L569.85 271.79L569.85 195.07L543.51 210.83L544.34 419.23Z" id="b1sCOU2TFD"></path></defs><g><g><g><g><use xlink:href="#b4eMaPrAl6" opacity="1" fill-opacity="0" stroke="#000000" stroke-width="1" stroke-opacity="1"></use></g></g><g><g><use xlink:href="#eoxNbWAiC" opacity="1" fill-opacity="0" stroke="#000000" stroke-width="1" stroke-opacity="1"></use></g></g><g><g><use xlink:href="#b5KPVCi0H4" opacity="1" fill-opacity="0" stroke="#000000" stroke-width="1" stroke-opacity="1"></use></g></g><g><g><use xlink:href="#ajdQ2eWQl" opacity="1" fill-opacity="0" stroke="#000000" stroke-width="1" stroke-opacity="1"></use></g></g><g><g><use xlink:href="#a1xv6zsE9Q" opacity="1" fill-opacity="0" stroke="#000000" stroke-width="1" stroke-opacity="1"></use></g></g><g><g><use xlink:href="#b493FIKkI" opacity="1" fill-opacity="0" stroke="#000000" stroke-width="1" stroke-opacity="1"></use></g></g><g><g><use xlink:href="#b1sCOU2TFD" opacity="1" fill-opacity="0" stroke="#000000" stroke-width="1" stroke-opacity="1"></use></g></g></g></g></svg>